<?xml version="1.0" encoding="utf-8"?>
<!-- Generator: Adobe Illustrator 26.2.1, SVG Export Plug-In . SVG Version: 6.00 Build 0)  -->
<svg version="1.1" id="Calque_1" xmlns:ooo="http://xml.openoffice.org/svg/export"
	 xmlns="http://www.w3.org/2000/svg" xmlns:xlink="http://www.w3.org/1999/xlink" x="0px" y="0px" viewBox="0 0 849.3 795.1"
	 style="enable-background:new 0 0 849.3 795.1;" xml:space="preserve">
<style type="text/css">
	.st0{clip-path:url(#SVGID_00000033356220924516360190000002123778322051898245_);}
	.st1{fill-rule:evenodd;clip-rule:evenodd;}
	.st2{fill-rule:evenodd;clip-rule:evenodd;fill:#848484;}
	.st3{fill-rule:evenodd;clip-rule:evenodd;fill:#4F4F4F;}
	.st4{fill-rule:evenodd;clip-rule:evenodd;fill:#353535;}
</style>
<g>
	<g id="id2">
		<g id="bg-id2">
		</g>
		<g id="bo-id2">
		</g>
	</g>
</g>
<g>
	<g>
		<g>
			<defs>
				<rect id="SVGID_1_" x="0" y="0" width="849.3" height="795.1"/>
			</defs>
			<clipPath id="SVGID_00000143584386411166948570000015035850486573920959_">
				<use xlink:href="#SVGID_1_"  style="overflow:visible;"/>
			</clipPath>
			<g id="id1" style="clip-path:url(#SVGID_00000143584386411166948570000015035850486573920959_);">
				<g>
					<g>
						<g id="id3">
							<path class="st1" d="M0,0L0,0L0,0L0,0L0,0z"/>
						</g>
					</g>
					<g>
						<g id="id4">
							<path class="st1" d="M0,0L0,0L0,0L0,0L0,0z"/>
						</g>
					</g>
					<g>
						<g id="id5">
							<path class="st1" d="M0,0L0,0L0,0L0,0L0,0z M0,0L0,0L0,0L0,0z"/>
						</g>
					</g>
					<g>
						<g id="id6">
							<path class="st1" d="M0.1,0L0.1,0L0.1,0L0.1,0L0.1,0L0.1,0L0.1,0L0.1,0L0.1,0L0.1,0z"/>
						</g>
					</g>
					<g>
						<g id="id7">
							<path class="st1" d="M0,0L0,0L0,0L0,0L0,0L0,0L0,0L0,0L0,0L0,0L0,0L0,0L0,0L0,0L0,0L0,0L0,0L0,0L0,0L0,0L0,0z"/>
						</g>
					</g>
					<g>
						<g id="id8">
							<path class="st1" d="M0,0L0,0L0,0L0,0L0,0L0,0L0,0L0,0L0,0L0,0L0,0L0,0L0,0L0,0z"/>
						</g>
					</g>
					<g>
						<g id="id9">
							<path class="st1" d="M0,0C0,0,0,0,0,0L0,0C0,0,0,0,0,0L0,0L0,0L0,0z"/>
						</g>
					</g>
					<g>
						<g id="id10">
							<path class="st1" d="M0,0L0,0z"/>
						</g>
					</g>
					<g>
						<g id="id11">
							<path class="st1" d="M0,0L0,0L0,0L0,0z"/>
						</g>
					</g>
					<g>
						<g id="id12">
							<path class="st1" d="M424.7-28.4L424.7-28.4L424.7-28.4L424.7-28.4z"/>
						</g>
					</g>
					<g>
						<g id="id13">
							<path class="st1" d="M424.6-28.4L424.6-28.4L424.6-28.4L424.6-28.4L424.6-28.4z"/>
						</g>
					</g>
					<g>
						<g id="id14">
							<path class="st1" d="M424.6-28.3L424.6-28.3L424.6-28.3L424.6-28.3z M424.7-28.3L424.7-28.3L424.7-28.3L424.7-28.3z"/>
						</g>
					</g>
					<g>
						<g id="id15">
							<path class="st1" d="M424.7-28.3L424.7-28.3L424.7-28.3L424.7-28.3L424.7-28.3L424.7-28.3z"/>
						</g>
					</g>
					<g>
						<g id="id16">
						</g>
					</g>
					<g>
						<g id="id17">
							<path class="st1" d="M424.6-28.3L424.6-28.3L424.6-28.3L424.6-28.3L424.6-28.3z"/>
						</g>
					</g>
					<g>
						<g id="id18">
							<path class="st1" d="M424.7-28.3C424.6-28.3,424.6-28.3,424.7-28.3C424.6-28.4,424.6-28.4,424.7-28.3L424.7-28.3L424.7-28.3z
								"/>
						</g>
					</g>
					<g>
						<g id="id19">
							<path class="st1" d="M424.6-28.3L424.6-28.3z"/>
						</g>
					</g>
					<g>
						<g id="id20">
						</g>
					</g>
					<g>
						<g id="id21">
							<path class="st2" d="M754.6,50.4c113.1,82.9,113.2,244.9,61.9,361.8C776,499.2,712.9,577,640.3,644.7
								C577,700.8,511.8,756.9,436.1,795.1c-37.1-14.5-68.5-39.6-101.2-61.9c-53.2-39.1-104.7-81.2-151.6-127.6
								C118.3,541.5,59.9,469.1,26.9,383C-40.6,249.6,24,65,170.7,19.2c58.5-19.2,124.8-14.7,179,15c27.5,16.5,56.7,37.9,76.5,64.5
								c27.2-35,62.6-68.5,103.7-82.5c28-10.7,57.9-15.4,87.6-16.2C669.5,0.1,715.3,18.3,754.6,50.4z"/>
						</g>
					</g>
					<g>
						<g id="id22">
							<path class="st3" d="M322.3,116.9c23.5,7.6,45.1,20.5,64.8,35.8c13.3,10.5,26,22.9,37.3,34.1c17.1-19.2,36.5-36.4,57.7-48.4
								c51.1-32.6,120.7-38.2,173.9-6.9c34.7,19.1,61.3,54.4,71.1,91.7c12.7,59.6-1.2,121.2-20,174.2
								c-20.8,45.4-48.8,89.1-86.3,125.2c-22.9,21.1-44.9,43.7-70,62.4c-39.6,34.2-79.9,67.1-118.9,102.2
								c-51.1-36.2-98.7-76.1-144.9-118c-83.1-85.3-186-186.8-167-318.4C128.5,156.6,230.1,78.8,322.3,116.9z"/>
						</g>
					</g>
					<g>
						<g id="id23">
							<path class="st4" d="M422.4,259.1c31.9-19.1,63.9-48.5,104.7-50.3c49.8-2,94.1,37.9,101.6,86.3c6.6,38.1-6.5,71.7-21.2,102.9
								c-21.2,44.8-56.4,87.3-94.9,119.2c-28.6,25.4-57.9,46-87.4,68c-44.1-31.7-83.6-70.5-123.9-107.3
								c-50.3-47.5-87.7-105.8-81.9-178.1c4.5-52,51.8-96.6,104.1-94.1C362.6,209.1,395.6,231.4,422.4,259.1z"/>
						</g>
					</g>
				</g>
			</g>
		</g>
	</g>
</g>
</svg>
